{"accessors" : [{"bufferView" : 0, "byteOffset" : 0, "componentType" : 5123, "count" : 31218, "type" : "SCALAR", "max" : [31217], "min" : [0]}, {"bufferView" : 1, "byteOffset" : 0, "componentType" : 5126, "count" : 31218, "type" : "VEC3", "max" : [114.43487548828125, 61.73064422607422, 182.7513885498047], "min" : [-113.271240234375, -61.013832092285156, -175.3107452392578], "name" : "POSITION"}, {"bufferView" : 1, "byteOffset" : 12, "componentType" : 5126, "count" : 31218, "type" : "VEC3", "max" : [0.9999085068702698, 0.9998242259025574, 0.9881834387779236], "min" : [-0.9998049736022949, -0.9999877214431763, -0.9998924732208252], "name" : "NORMAL"}, {"bufferView" : 1, "byteOffset" : 24, "componentType" : 5126, "count" : 31218, "type" : "VEC2", "max" : [0.9530038833618164, -0.050338368862867355], "min" : [0.016770057380199432, -0.9218831062316895], "name" : "TEXCOORD_0"}, {"bufferView" : 0, "byteOffset" : 62436, "componentType" : 5123, "count" : 16614, "type" : "SCALAR", "max" : [16613], "min" : [0]}, {"bufferView" : 2, "byteOffset" : 0, "componentType" : 5126, "count" : 16614, "type" : "VEC3", "max" : [33.84400177001953, 62.366943359375, 183.57188415527344], "min" : [-114.34567260742188, -62.366943359375, -40.74615478515625], "name" : "POSITION"}, {"bufferView" : 2, "byteOffset" : 12, "componentType" : 5126, "count" : 16614, "type" : "VEC3", "max" : [0.9995912313461304, 0.9999849796295166, 0.9994925260543823], "min" : [-0.9999042749404907, -0.9999136924743652, -0.9998118877410889], "name" : "NORMAL"}, {"bufferView" : 2, "byteOffset" : 24, "componentType" : 5126, "count" : 16614, "type" : "VEC2", "max" : [0.5728035569190979, -0.050338368862867355], "min" : [0.016770057380199432, -0.4841683506965637], "name" : "TEXCOORD_0"}, {"bufferView" : 0, "byteOffset" : 95664, "componentType" : 5123, "count" : 11484, "type" : "SCALAR", "max" : [11483], "min" : [0]}, {"bufferView" : 3, "byteOffset" : 0, "componentType" : 5126, "count" : 11484, "type" : "VEC3", "max" : [114.36961364746094, 34.54108428955078, -95.77794647216797], "min" : [-82.46937561035156, -49.18653106689453, -182.54437255859375], "name" : "POSITION"}, {"bufferView" : 3, "byteOffset" : 12, "componentType" : 5126, "count" : 11484, "type" : "VEC3", "max" : [0.998039960861206, 0.9993680715560913, 0.9998930096626282], "min" : [-0.9990925192832947, -0.999739944934845, -1.0000044107437134], "name" : "NORMAL"}, {"bufferView" : 3, "byteOffset" : 24, "componentType" : 5126, "count" : 11484, "type" : "VEC2", "max" : [0.9884721040725708, -0.5894608497619629], "min" : [0.35690566897392273, -0.9355079531669617], "name" : "TEXCOORD_0"}], "asset" : {"generator" : "Aspose.3D 23.9.0", "version" : "2.0"}, "buffers" : [{"uri" : "data:application/octet-stream;base64,", "byteLength" : 2016760}], "bufferViews" : [{"buffer" : 0, "byteOffset" : 0, "byteLength" : 118632, "target" : 34963}, {"buffer" : 0, "byteOffset" : 118636, "byteLength" : 998976, "byteStride" : 32, "target" : 34962}, {"buffer" : 0, "byteOffset" : 1117616, "byteLength" : 531648, "byteStride" : 32, "target" : 34962}, {"buffer" : 0, "byteOffset" : 1649268, "byteLength" : 367488, "byteStride" : 32, "target" : 34962}], "materials" : [{"name" : "Boot_Le", "pbrMetallicRoughness" : {"baseColorFactor" : [0.16862745583057404, 0.09019608050584793, 0.07058823853731155, 1], "metallicFactor" : 0, "roughnessFactor" : 0}, "emissiveFactor" : [0, 0, 0], "alphaMode" : "OPAQUE", "doubleSided" : false}, {"name" : "Boot_fur", "pbrMetallicRoughness" : {"baseColorFactor" : [0.5490196347236633, 0.4549019932746887, 0.3803921937942505, 1], "metallicFactor" : 0, "roughnessFactor" : 0}, "emissiveFactor" : [0, 0, 0], "alphaMode" : "OPAQUE", "doubleSided" : false}, {"name" : "Boot_sole", "pbrMetallicRoughness" : {"baseColorFactor" : [0.0470588281750679, 0.027450982481241226, 0.019607843831181526, 1], "metallicFactor" : 0, "roughnessFactor" : 0}, "emissiveFactor" : [0, 0, 0], "alphaMode" : "OPAQUE", "doubleSided" : false}], "meshes" : [{"primitives" : [{"attributes" : {"POSITION" : 1, "NORMAL" : 2, "TEXCOORD_0" : 3}, "indices" : 0, "material" : 0, "mode" : 4}, {"attributes" : {"POSITION" : 5, "NORMAL" : 6, "TEXCOORD_0" : 7}, "indices" : 4, "material" : 1, "mode" : 4}, {"attributes" : {"POSITION" : 9, "NORMAL" : 10, "TEXCOORD_0" : 11}, "indices" : 8, "material" : 2, "mode" : 4}], "name" : ""}], "nodes" : [{"matrix" : [1, 0, 0, 0, 0, 1, 0, 0, 0, 0, 1, 0, -0.04443359375, 0, -0.513763427734375, 1], "mesh" : 0, "name" : "Boot_L"}, {"children" : [0], "matrix" : [1, 0, 0, 0, 0, 1, 0, 0, 0, 0, 1, 0, -475.25537109375, 215.298828125, -834.5648193359375, 1], "name" : "Boot_L_GR"}, {"children" : [1], "matrix" : [0.1, 0, 0, 0, 0, 6.123233995736766E-18, -0.1, 0, 0, 0.1, 6.123233995736766E-18, 0, 0, 101.71443176269531, 0, 1], "name" : "Clothes_6"}], "scene" : 0, "scenes" : [{"nodes" : [2]}]}